<svg width="570" height="100" viewBox="0 0 570 100" fill="none" xmlns="http://www.w3.org/2000/svg">
<path d="M20.6758 -0.000244141L30.8718 12.2659L0 24.532L20.6758 -0.000244141Z" fill="url(#paint0_linear_305_15)"/>
<path d="M63.8039 61.8026L95.2231 24.5315H111.246L63.7243 81.1845L63.8039 61.8026Z" fill="url(#paint1_linear_305_15)"/>
<path d="M95.2229 24.5318H0L30.8718 12.2656H101.269L111.246 24.5318H95.2229Z" fill="url(#paint2_linear_305_15)"/>
<path d="M95.2234 24.5318L101.269 12.2656L111.247 24.5318H95.2234Z" fill="url(#paint3_linear_305_15)"/>
<path d="M101.27 12.2659H30.8726L20.6765 -0.000244141H106.908L101.27 12.2659Z" fill="url(#paint4_linear_305_15)"/>
<path d="M111.246 24.532L101.269 12.2659L106.907 -0.000244141L127.389 24.532H111.246Z" fill="url(#paint5_linear_305_15)"/>
<path d="M63.7243 81.1846L111.246 24.5315H127.389L79.8867 80.886L63.8338 99.9992L63.7243 81.1846Z" fill="url(#paint6_linear_305_15)"/>
<path d="M44.9494 58.9921L63.7242 81.1856L63.8337 100L20.8948 49.0598L44.9494 58.9921Z" fill="url(#paint7_linear_305_15)"/>
<path d="M44.9494 58.9921L20.8948 49.0598H53.0604L44.9494 58.9921Z" fill="url(#paint8_linear_305_15)"/>
<path d="M53.0601 49.0598L44.9491 58.9921L63.7239 81.1856L63.8036 61.8036L53.0601 49.0598Z" fill="url(#paint9_linear_305_15)"/>
<path d="M225.352 22.1409V35.7748H239.38V45.3884H225.352V67.2636C225.352 70.2723 226.006 72.4145 227.315 73.6901C228.624 74.9657 230.714 75.6017 233.593 75.6017C235.947 75.6017 237.877 75.2744 239.38 74.6198V84.2335C237.025 84.9512 234.344 85.312 231.335 85.312C226.367 85.312 222.328 83.9211 219.219 81.143C216.11 78.3649 214.559 74.326 214.559 69.0264V45.3847H204.358V35.7711H214.559V22.1409H225.348H225.352ZM161.496 15.1789V45.195L189.452 15.1789H203.971L172.973 48.531L210.84 84.8248H195.339L161.496 52.2574V84.8248H150.116V15.1789H161.496ZM288.913 78.4504C284.008 83.3558 277.927 85.8066 270.668 85.8066C263.408 85.8066 257.309 83.3372 252.374 78.4021C247.435 73.4632 244.969 67.431 244.969 60.3017C244.969 53.1723 247.439 47.1401 252.374 42.2012C257.313 37.2624 263.408 34.7967 270.668 34.7967C277.927 34.7967 284.026 37.2661 288.961 42.2012C293.9 47.1401 296.366 53.1723 296.366 60.3017C296.366 67.431 293.882 73.4781 288.909 78.4504H288.913ZM270.668 75.8025C274.918 75.8025 278.433 74.3149 281.215 71.3397C283.993 68.3645 285.384 64.6864 285.384 60.3054C285.384 55.9244 283.993 52.2463 281.215 49.2711C278.437 46.2959 274.918 44.8083 270.668 44.8083C266.417 44.8083 262.802 46.2959 260.024 49.2711C257.246 52.2463 255.855 55.9244 255.855 60.3054C255.855 64.6864 257.246 68.3645 260.024 71.3397C262.802 74.3149 266.35 75.8025 270.668 75.8025ZM306.861 84.8248V35.7785H317.65V42.4504C320.722 37.3479 325.694 34.8004 332.559 34.8004C338.249 34.8004 342.794 36.6636 346.193 40.3901C349.592 44.1165 351.296 49.0888 351.296 55.2996V84.8248H340.507V57.0624C340.507 53.1388 339.592 50.0818 337.759 47.8913C335.929 45.7008 333.441 44.6037 330.302 44.6037C326.575 44.6037 323.533 46.0095 321.179 48.8211C318.825 51.6326 317.646 55.5897 317.646 60.6921V84.8248H306.857H306.861ZM365.223 84.8248V15.1789H386.608C396.939 15.1789 405.604 18.5149 412.604 25.1831C419.603 31.855 423.099 40.126 423.099 50C423.099 59.874 419.599 68.1488 412.604 74.8169C405.608 81.4851 396.939 84.8211 386.608 84.8211H365.223V84.8248ZM376.7 74.1326H386.608C393.93 74.1326 399.899 71.8455 404.511 67.2674C409.123 62.6893 411.428 56.9359 411.428 50.0037C411.428 43.0715 409.123 37.3182 404.511 32.7401C399.899 28.162 393.934 25.8748 386.608 25.8748H376.7V74.1364V74.1326ZM424.664 84.8248L455.075 15.1789H465.079L495.489 84.8285H483.521L475.574 66.5831H444.379L436.532 84.8285H424.661L424.664 84.8248ZM459.98 30.676L448.797 56.3781H471.163L459.98 30.676ZM533.155 74.9174C539.957 74.9174 545.711 72.4963 550.419 67.6578C555.127 62.8194 557.481 56.9322 557.481 50C557.481 43.0678 555.127 37.1806 550.419 32.3421C545.711 27.5037 539.954 25.0826 533.155 25.0826C526.357 25.0826 520.499 27.5037 515.791 32.3421C511.083 37.1806 508.729 43.0678 508.729 50C508.729 56.9322 511.083 62.8194 515.791 67.6578C520.499 72.4963 526.286 74.9174 533.155 74.9174ZM558.66 75.505C551.661 82.5041 543.159 86 533.155 86C523.151 86 514.649 82.519 507.65 75.5533C500.651 68.5876 497.155 60.0711 497.155 50C497.155 39.9289 500.655 31.4124 507.65 24.4467C514.649 17.481 523.151 14 533.155 14C543.159 14 551.661 17.4996 558.66 24.495C565.659 31.4942 569.155 39.9959 569.155 50C569.155 60.0041 565.656 68.5058 558.66 75.505Z" fill="url(#paint10_linear_305_15)"/>
<defs>
<linearGradient id="paint0_linear_305_15" x1="14.8816" y1="23.5129" x2="14.8816" y2="-1.01935" gradientUnits="userSpaceOnUse">
<stop stop-color="#ABEC79"/>
<stop offset="1" stop-color="#72D444"/>
</linearGradient>
<linearGradient id="paint1_linear_305_15" x1="86.9254" y1="24.576" x2="86.9254" y2="80.096" gradientUnits="userSpaceOnUse">
<stop stop-color="#36B564"/>
<stop offset="1" stop-color="#598E69"/>
</linearGradient>
<linearGradient id="paint2_linear_305_15" x1="56.0092" y1="24.0175" x2="56.0092" y2="11.7513" gradientUnits="userSpaceOnUse">
<stop stop-color="#499D6C"/>
<stop offset="1" stop-color="#1C8441"/>
</linearGradient>
<linearGradient id="paint3_linear_305_15" x1="94.696" y1="17.8844" x2="110.719" y2="17.8844" gradientUnits="userSpaceOnUse">
<stop stop-color="#4C9B72"/>
<stop offset="1" stop-color="#25623E"/>
</linearGradient>
<linearGradient id="paint4_linear_305_15" x1="64.7323" y1="-0.514526" x2="64.7323" y2="11.5063" gradientUnits="userSpaceOnUse">
<stop stop-color="#B1F286"/>
<stop offset="1" stop-color="#6BD240"/>
</linearGradient>
<linearGradient id="paint5_linear_305_15" x1="128.354" y1="11.2468" x2="102.235" y2="11.2468" gradientUnits="userSpaceOnUse">
<stop stop-color="#A6E579"/>
<stop offset="1" stop-color="#66B740"/>
</linearGradient>
<linearGradient id="paint6_linear_305_15" x1="94.8346" y1="100.939" x2="94.8346" y2="25.4711" gradientUnits="userSpaceOnUse">
<stop stop-color="#399163"/>
<stop offset="1" stop-color="#205A38"/>
</linearGradient>
<linearGradient id="paint7_linear_305_15" x1="42.7376" y1="48.3525" x2="42.7376" y2="99.293" gradientUnits="userSpaceOnUse">
<stop stop-color="#54A66D"/>
<stop offset="1" stop-color="#2A6D3B"/>
</linearGradient>
<linearGradient id="paint8_linear_305_15" x1="36.3582" y1="49.8943" x2="36.3582" y2="59.8217" gradientUnits="userSpaceOnUse">
<stop stop-color="#B1F286"/>
<stop offset="1" stop-color="#79E14E"/>
</linearGradient>
<linearGradient id="paint9_linear_305_15" x1="53.7514" y1="50.1573" x2="53.7514" y2="82.2781" gradientUnits="userSpaceOnUse">
<stop stop-color="#4C9D69"/>
<stop offset="1" stop-color="#256438"/>
</linearGradient>
<linearGradient id="paint10_linear_305_15" x1="156.702" y1="49.7621" x2="567.361" y2="49.7621" gradientUnits="userSpaceOnUse">
<stop stop-color="#20AB4A"/>
<stop offset="1" stop-color="#62EB15"/>
</linearGradient>
</defs>
</svg>
